<svg xmlns="http://www.w3.org/2000/svg" viewBox="0 0 1024 1024" width="1024" height="1024">
  <g transform="translate(512,480)">
    <rect x="-175" y="-205" width="350" height="410" rx="32" fill="#ffffff"/>
    <rect x="-155" y="-185" width="310" height="370" rx="20" fill="none"
          stroke="#ffffff" stroke-width="2" stroke-opacity="0.5"/>
    <line x1="50" y1="10" x2="155" y2="10" stroke="#ffffff" stroke-width="14" stroke-linecap="round"/>
    <circle cx="155" cy="10" r="28" fill="none" stroke="#ffffff" stroke-width="10"/>
    <circle cx="-20" cy="-40" r="32" fill="#000000"/>
    <rect x="-30" y="-40" width="20" height="70" rx="4" fill="#000000"/>
    <rect x="-175" y="-120" width="20" height="8" rx="2" fill="#ffffff" opacity="0.6"/>
    <rect x="-175" y="-60" width="20" height="8" rx="2" fill="#ffffff" opacity="0.6"/>
    <rect x="-175" y="0" width="20" height="8" rx="2" fill="#ffffff" opacity="0.6"/>
    <rect x="-175" y="60" width="20" height="8" rx="2" fill="#ffffff" opacity="0.6"/>
    <rect x="-175" y="120" width="20" height="8" rx="2" fill="#ffffff" opacity="0.6"/>
    <rect x="148" y="-180" width="18" height="30" rx="4" fill="#ffffff" opacity="0.4"/>
    <rect x="148" y="150" width="18" height="30" rx="4" fill="#ffffff" opacity="0.4"/>
  </g>
</svg>